<svg xmlns="http://www.w3.org/2000/svg" xmlns:xlink="http://www.w3.org/1999/xlink" viewBox="0 0 154.5 154.5" height="154.5" width="154.5" data-background-color="#ffffff" preserveAspectRatio="xMidYMid meet" id="tight-bounds"><g><svg/></g><g><svg viewBox="0 0 154.5 154.5" height="154.5" width="154.5"><mask id="99719957-29f3-4c96-b866-99db44f4268f"><rect width="250" height="250" fill="white"/><rect width="84.02328" height="87.55875205934998" fill="black" y="33.47062397032501" x="35.23836" id="transform-me"/></mask><g transform="matrix(1,0,0,1,39.0576,47.511646875000004)"><svg viewBox="0 0 76.3848 59.47670624999999" height="59.47670624999999" width="76.3848"><g><svg viewBox="0 0 76.3848 59.47670624999999" height="59.47670624999999" width="76.3848"><g><svg viewBox="0 0 76.3848 59.47670624999999" height="59.47670624999999" width="76.3848"><g id="textblocktransform"><svg viewBox="0 0 76.3848 59.47670624999999" height="59.47670624999999" width="76.3848" id="textblock"><g><svg viewBox="0 0 76.3848 59.47670624999999" height="59.47670624999999" width="76.3848"><g transform="matrix(1,0,0,1,0,0)"><svg width="76.3848" viewBox="4 -29.399999618530273 38.400001525878906 29.899999618530273" height="59.47670624999999" data-palette-color="#0063db"><g class="wordmark-text-0" data-fill-palette-color="primary" id="text-0"><path d="M36.35 0.5L36.35 0.5Q33.9 0.5 31.6-0.5 29.3-1.5 27.55-3.2L27.55-3.2Q26.65-4.1 25.75-5 24.85-5.9 23.95-6.8L23.95-6.8Q22.05-8.7 19.93-9.83 17.8-10.95 14.6-10.95L14.6-10.95 14.1-10.95 14.1 0 4.5 0 4.5-25.4 4-29.4 14.1-29.4 14.1-17.85 15.6-17.85Q16.45-17.85 16.93-18.07 17.4-18.3 17.95-18.9L17.95-18.9Q19.15-20.2 20.63-22.08 22.1-23.95 23.53-25.93 24.95-27.9 25.95-29.4L25.95-29.4 38.2-29.4 36.15-26.4Q34.9-25.05 33.38-23.45 31.85-21.85 30.35-20.33 28.85-18.8 27.6-17.55 26.35-16.3 25.6-15.6L25.6-15.6Q27.15-14.95 28.3-14.13 29.45-13.3 30.8-12.25L30.8-12.25Q32.05-11.3 32.98-10.5 33.9-9.7 35.2-8.7L35.2-8.7Q37.9-6.6 39.88-6.08 41.85-5.55 42.4-5.55L42.4-5.55 40.4 0Q39.9 0.15 38.83 0.33 37.75 0.5 36.35 0.5Z" fill="#0063db" data-fill-palette-color="primary"/></g></svg></g></svg></g></svg></g></svg></g></svg></g></svg></g><g mask="url(#99719957-29f3-4c96-b866-99db44f4268f)"><g transform="matrix(1.6723358058008613, 0, 0, 1.6723358058008613, 1, 23.228176868105166)"><svg xmlns="http://www.w3.org/2000/svg" data-name="Layer 1" viewBox="4.380931854248047 17.693603515625 91.1898193359375 64.60643005371094" x="0" y="0" height="64.60643005371094" width="91.1898193359375" class="icon-none" data-fill-palette-color="accent" id="none"><g data-name="Group" fill="#d90000" data-fill-palette-color="accent"><path data-name="Compound Path" d="M50 82.3a32.2 32.2 0 0 0 21.4-8.1l5.2 1.2a48.1 48.1 0 0 0 9.2 1.1c4.2 0 7.8-0.9 9.2-3.7 3-5.9-6.5-14.8-12.8-19.8 0.1-1 0.1-2 0.1-3A32.3 32.3 0 0 0 28.6 25.8C20.8 23.7 8 21.3 5.1 27.2S8.4 39.3 17.8 46.9c-0.1 1-0.1 2-0.1 3.1A32.4 32.4 0 0 0 50 82.3Zm0-2A30.4 30.4 0 0 1 19.7 50q0-0.8 0-1.6A155.5 155.5 0 0 0 43.4 63.1 154.3 154.3 0 0 0 69.1 73.5 30.2 30.2 0 0 1 50 80.3Zm43.2-8.4c-1.4 2.7-7.4 3.3-16.2 1.6l-3.9-0.9a32.3 32.3 0 0 0 8.8-17.2C90.5 62.4 94.8 68.7 93.2 71.9ZM80.3 50a30.2 30.2 0 0 1-9.4 22A149.4 149.4 0 0 1 44.3 61.3 149.5 149.5 0 0 1 19.9 46.2 30.3 30.3 0 0 1 80.3 50ZM6.8 28.1c1.6-3.2 9.2-3.4 20-0.7a32.3 32.3 0 0 0-8.8 17.3C9.4 37.5 5.2 31.3 6.8 28.1Z" fill="#d90000" data-fill-palette-color="accent"/></g></svg></g></g></svg></g><defs/></svg>