<svg xmlns="http://www.w3.org/2000/svg" viewBox="0 0 395.52 247.2" height="247.2" width="395.52"><g><svg/></g><g><svg viewBox="0 0 395.52 247.2" height="247.2" width="395.52"><g transform="matrix(1,0,0,1,39.55199999999999,103.43260438391147)"><svg viewBox="0 0 316.416 40.33479123217706" height="40.33479123217706" width="316.416"><g><svg viewBox="0 0 316.416 40.33479123217706" height="40.33479123217706" width="316.416"><g><svg viewBox="0 0 316.416 40.33479123217706" height="40.33479123217706" width="316.416"><g id="textblocktransform"><svg viewBox="0 0 316.416 40.33479123217706" height="40.33479123217706" width="316.416" id="textblock"><g><svg viewBox="0 0 316.416 40.33479123217706" height="40.33479123217706" width="316.416"><g transform="matrix(1,0,0,1,0,0)"><svg width="316.416" viewBox="4 -29.45 234.94 29.95" height="40.33479123217706" data-palette-color="#0063db"><g class="undefined-text-0" data-fill-palette-color="primary" id="text-0"><path d="M36.35 0.5L36.35 0.5Q33.9 0.5 31.6-0.5 29.3-1.5 27.55-3.2L27.55-3.2Q26.65-4.1 25.75-5 24.85-5.9 23.95-6.8L23.95-6.8Q22.05-8.7 19.93-9.83 17.8-10.95 14.6-10.95L14.6-10.95 14.1-10.95 14.1 0 4.5 0 4.5-25.4 4-29.4 14.1-29.4 14.1-17.85 15.6-17.85Q16.45-17.85 16.93-18.07 17.4-18.3 17.95-18.9L17.95-18.9Q19.15-20.2 20.63-22.08 22.1-23.95 23.53-25.93 24.95-27.9 25.95-29.4L25.95-29.4 38.2-29.4 36.15-26.4Q34.9-25.05 33.38-23.45 31.85-21.85 30.35-20.33 28.85-18.8 27.6-17.55 26.35-16.3 25.6-15.6L25.6-15.6Q27.15-14.95 28.3-14.13 29.45-13.3 30.8-12.25L30.8-12.25Q32.05-11.3 32.98-10.5 33.9-9.7 35.2-8.7L35.2-8.7Q37.9-6.6 39.88-6.08 41.85-5.55 42.4-5.55L42.4-5.55 40.4 0Q39.9 0.15 38.83 0.33 37.75 0.5 36.35 0.5ZM75.2 0L46.9 0 46.9-29.4 79-29.4 79-22.6 56.65-22.6 56.65-18.45 73.2-18.45 73.2-11.5 56.65-11.5 56.65-6.85 78.2-6.85 81.2-0.55Q81.2-0.35 79.85-0.18 78.5 0 75.2 0L75.2 0ZM96.45 0L86.7 0 86.7-25.4 86.2-29.45 109.35-29.45Q112.7-29.45 114.72-28.73 116.75-28 117.77-26.78 118.8-25.55 119.12-23.93 119.45-22.3 119.45-20.5L119.45-20.5 119.45-16.55Q119.45-14.15 118.67-12.13 117.9-10.1 115.82-8.88 113.75-7.65 109.85-7.65L109.85-7.65 106.4-7.65Q103.25-7.65 100.52-7.8 97.8-7.95 96.45-8.05L96.45-8.05 96.45 0ZM96.45-22.55L96.45-14.45 106.8-14.45Q108.45-14.45 109.1-15.1 109.75-15.75 109.75-17.2L109.75-17.2 109.75-19.75Q109.75-21.2 109.15-21.88 108.55-22.55 106.85-22.55L106.85-22.55 96.45-22.55ZM151.24 0L126.44 0 126.94-4 126.94-29.4 136.54-29.4 136.54-6.85 154.24-6.85 157.24-0.55Q157.24-0.35 155.89-0.18 154.54 0 151.24 0L151.24 0ZM189.54 0L161.24 0 161.24-29.4 193.34-29.4 193.34-22.6 170.99-22.6 170.99-18.45 187.54-18.45 187.54-11.5 170.99-11.5 170.99-6.85 192.54-6.85 195.54-0.55Q195.54-0.35 194.19-0.18 192.84 0 189.54 0L189.54 0ZM232.99 0.5L232.99 0.5Q230.99 0.5 228.54-0.13 226.09-0.75 223.69-3.2L223.69-3.2 221.59-5.3Q220.09-6.8 218.71-7.75 217.34-8.7 215.59-9.18 213.84-9.65 211.19-9.65L211.19-9.65 210.79-9.65 210.79 0 201.04 0 201.04-25.4 200.54-29.45 223.69-29.45Q226.89-29.45 228.86-28.68 230.84-27.9 231.91-26.63 232.99-25.35 233.39-23.75 233.79-22.15 233.79-20.5L233.79-20.5 233.79-19.55Q233.79-16.55 232.26-14.18 230.74-11.8 227.44-10.8L227.44-10.8Q228.69-10.05 229.81-9.28 230.94-8.5 232.39-7.65L232.39-7.65Q234.04-6.7 235.46-6.28 236.89-5.85 237.84-5.75 238.79-5.65 238.94-5.65L238.94-5.65 237.44 0Q236.84 0.15 235.61 0.33 234.39 0.5 232.99 0.5ZM216.59-16.3L216.59-16.3Q217.84-16.3 219.01-16.35 220.19-16.4 221.14-16.5L221.14-16.5Q222.84-16.7 223.46-17.57 224.09-18.45 224.09-19.7L224.09-19.7 224.09-20.25Q224.09-21.35 223.46-21.95 222.84-22.55 221.19-22.55L221.19-22.55 210.79-22.55 210.79-16.5Q212.04-16.45 213.54-16.38 215.04-16.3 216.59-16.3Z" fill="#0063db" data-fill-palette-color="primary"/></g></svg></g></svg></g></svg></g></svg></g></svg></g></svg></g><g mask="url(#d9675cd8-d1d8-4bdb-8834-c9b445041be4)"><g transform="matrix(3.7952551531541743, 0, 0, 3.7952551531541743, 24.715668537762895, 1)"><svg xmlns="http://www.w3.org/2000/svg" data-name="Layer 1" viewBox="4.3809322083131175 17.693044714873203 91.18982755002534 64.60698691001534" x="0" y="0" height="64.60698691001534" width="91.18982755002534" class="icon-none" data-fill-palette-color="accent" id="none"><g data-name="Group" fill="#d90000" data-fill-palette-color="accent"><path data-name="Compound Path" d="M50 82.3a32.2 32.2 0 0 0 21.4-8.1l5.2 1.2a48.1 48.1 0 0 0 9.2 1.1c4.2 0 7.8-0.9 9.2-3.7 3-5.9-6.5-14.8-12.8-19.8 0.1-1 0.1-2 0.1-3A32.3 32.3 0 0 0 28.6 25.8C20.8 23.7 8 21.3 5.1 27.2S8.4 39.3 17.8 46.9c-0.1 1-0.1 2-0.1 3.1A32.4 32.4 0 0 0 50 82.3Zm0-2A30.4 30.4 0 0 1 19.7 50q0-0.8 0-1.6A155.5 155.5 0 0 0 43.4 63.1 154.3 154.3 0 0 0 69.1 73.5 30.2 30.2 0 0 1 50 80.3Zm43.2-8.4c-1.4 2.7-7.4 3.3-16.2 1.6l-3.9-0.9a32.3 32.3 0 0 0 8.8-17.2C90.5 62.4 94.8 68.7 93.2 71.9ZM80.3 50a30.2 30.2 0 0 1-9.4 22A149.4 149.4 0 0 1 44.3 61.3 149.5 149.5 0 0 1 19.9 46.2 30.3 30.3 0 0 1 80.3 50ZM6.8 28.1c1.6-3.2 9.2-3.4 20-0.7a32.3 32.3 0 0 0-8.8 17.3C9.4 37.5 5.2 31.3 6.8 28.1Z" fill="#d90000" data-fill-palette-color="accent"/></g></svg></g></g></svg></g><defs><mask id="d9675cd8-d1d8-4bdb-8834-c9b445041be4"><rect width="640" height="400" fill="white"/><rect width="348.05760000000004" height="59.37894358203192" fill="black" x="145.97119999999998" y="170.31052820898404" id="transform-me" transform="matrix(1,0,0,1,-122.24000000000001,-76.4)"/></mask></defs></svg>